<?xml version="1.0" encoding="UTF-8"?>
<svg id="Layer_1" data-name="Layer 1" xmlns="http://www.w3.org/2000/svg" viewBox="0 0 550.27 606.23">
  <g>
    <path d="M374.28,549.07c1.81-.3,1.72-2.02,2.15-3.35,7.15-22.32-6.72-44.37-.16-66.65-8.44,3.13-18.5,6.33-27.51,6.98-18.06,1.31-34.69-8.28-51.96-12-10.83,7.65-22.17,15.48-35.26,18.78-2.44.62-5.07-.08-7.55.45-9.69,2.09-17.48,7.23-29.17,7.82-1.35.07-13.29.23-10.54-3.02,2.68.19,13.56-12.28,12.99-13.01l-17.35-6.85-5.47,5.51-6.16,11.32c-3.96-9.2-5.09-20.4-3.9-30.38.64-5.35,4.2-9.17,4.83-13.17.66-4.24-.29-9.1.32-13.68,1.39-10.42,8.1-17.1,16.42-22.58,13.79-9.09,23.82-19.83,36.85-30.15,4.24-3.36,22.6-17.86,26.21-18.79,5.01-1.29,19.8.95,25.47,2.05,24.58,4.79,44.71,19.14,61.78,36.71-9.19-32.21-44.21-45.86-74.99-47.01.47-.91-4.65-2.02,3.12-4.05s40.11,2.17,42.83-2.03,6.56-31.99,11.04-32.79,4.49-.81,4.49-.8c0,0-2.32.42-2.31.46h.05c4.64-1.11,8.68-1.19,11.57-1.02,3.12-.17,7.83-.09,13.26,1.36,3.47.93,6.23,2.15,9.48,3.83,6.31,3.26,17.07,7.83,26.96,19.03,1.94,2.19,8.85,13.31,10.86,12.94,13.63-13.67,26.1-34.81,27.62-54.46.09-1.1.74-3.72-.97-3.47-3.61,11.59-12.73,29.63-21.47,38.03-1.16,1.11-2.08,2.33-3.96,2.04-.64-.1-6.48-7.78-8.57-9.58-8.31-7.18-19.23-12.35-30.01-14.5,9.66-15.94,25.22-29.84,41.51-38.98.18-13.54.47-24.09,3.77-37.23,4.21-16.77,11.42-32.72,18.68-48.3-13.54-24.31-14.2-55.4-7.17-81.87-14.25-11.72-35.11-20.47-38.8-40.61-2.24.12-3.5,1.9-5.71,2.78-14.61,5.78-33.19,5.17-48.28,1.72-8.73-1.99-17.02-6.84-26-6.51,3.08,23.14-18.88,33.82-28.41,50.09-12.76,21.77.27,43.1,25.66,39.66,18.24-2.47,27.07-20.06,28.77-36.74,1.42-.21,1.56,2.75,1.71,3.77,8.29,54.42-56.42,76.19-95.19,44.2-50.45-41.64-15.09-126.91,42.21-139.73,2.67-.6,5.97.39,8.28-.72.75-.36,6.72-8.18,8.98-10.02,22.6-18.44,71.45-18.91,95.93-3.91,7.36,4.51,4.62,3.89,13.35,6.65,25.4,8.06,47.9,33.15,57.75,57.25,4.26,10.41,5.96,12.27,11.41,21.59,14.43,24.7,14,56.96,5.85,83.69-.96,3.15-4.19,8.18-4.35,10.72-.25,4.04,2.84,11.86,3.12,16.97,1.16,21.61-10.07,48.65-21.23,66.85-1.45,2.37-8.39,10.69-8.6,11.4-1.15,3.86-.56,15.49-1.22,20.78-7.26,58.14-66.45,104.25-116.3,127.7-9.99,4.7-21.76,7.2-30.68,14.32l31.51-5.49c14.7.09,35.1-3.4,46.53,8.45,1.6,1.66,4,6.49,4.96,7.04,3.54,2.06,8.85.03,15.47,5.53,21.55,17.87,14.36,61.38-1.96,80.99-15.07,18.1-27.05,19.61-46.76,28.24-5.25,2.3-11.25,7.1-17.08,9.92-40.16,19.44-95.02,28.47-138.88,19.53-11.04-2.25-24.78-5.66-32.8-13.69,37.26,3.02,77.68-2.25,112.96-14.55,1.96-.68,5.93-1.78,7.03-3.45l-24.32-7.7c-55.15,11.22-121.4,24.94-169.67-12.3l26.54,1.03c68.43.16,128.63-22.14,192.25-41.75,13.65-4.21,31.61-12.85,41.41,2.02,1.58,2.4,6.8,13.91,6.8,16.2v20.5h-.02ZM402.28,25.06c-15.53-11.16-38.41-11.89-56.26-5.75-3.36,1.16-19.15,8.6-18.6,12.07l9.85,10.69.5-11.01c19.66-10.23,43.27-11.17,64.51-6ZM448.27,52.06c1.16-1.1-4.59-6.12-5.52-6.97-5.54-5.05-12.4-8.68-18.46-13.03l-5,24,11.58-13.05,17.41,9.05h0ZM318.28,41.08c-10.41-2.73-18.03-.56-26.92,4.57-31.35,18.08-53.65,64.66-28.57,96.42-.25-8.22-2.87-16.12-2.49-24.49,1.17-25.67,21.52-56.76,43.68-69.31,4.73-2.68,10.16-3.95,14.3-7.18h0ZM485.28,147.07v-19.5c0-2.13-1.84-8.9-2.51-11.49-1.14-4.44-3.18-8.64-4.51-13.01l-20.99,10.5c3.8,4.01,19.79,1.15,21.53,3.48l6.48,30.02ZM481.27,202.07l-20.99,4.01c1.1,3.69,16.28,6.21,16.87,7.12.97,9.75-1.38,19.31-2.86,28.86l6.87-21.61c-.19-6.45,1.77-12.07.11-18.39h0ZM272.27,406.08c-16.65,2.75-38.03,11.62-43.99,28.99l43.99-28.99ZM247.28,460.06c15.38,2.9,29.74-6.71,27.99-22.99-11.6,5.37-22.64,10.46-27.99,22.99Z" fill="#fff"/>
    <path d="M492.28,549.06c-17.55.22-17.23-18.37-15.88-31.37,1.55-14.86,6.98-29.36,9.65-44-9.7-8.95-14.12-21.59-19.73-33.2l-1.37-.31c-17.54,9.38-36.83,9.42-56.23,8.94-11.6-6.88-16.23-12.68-30.96-13.06-.98-.02-3.37.54-2-1,20.28-13.93,50.43-20.72,74.97-22.04,5.94-.32,25.62-.55,30.1,1.98,9.64,5.45,23.34,42.72,23.47,53.61.32,25.86-25.28,54.89-12.03,80.44h.01Z" fill="#fff"/>
    <path d="M550.27,463.09c.21,4.31-7.29,3.26-10.26,2.74-21.77-3.76-27.72-39.98-30.23-57.77-11.74-6.42-20.32-17.23-26.52-28.99l-22.22,23.34c-15.77,1.58-32.49.05-47.25,6.68l-.51-2c1.18-.13,2.16-.65,3.01-1.46,17.89-17.09,34.98-37.5,54.52-52.52,14.21-10.92,19.9-12.38,31.27,2.64,7.27,9.61,24.06,34.99,26.06,45.94,3.84,20.96.73,49.02,22.11,61.4h.02,0Z" fill="#fff"/>
    <g>
      <path d="M138.28,331.07c-6.05,24.54-23.46,47.56-45.99,59.01,13.89,24.33,5.47,54.38-5.15,78.34-8.92,20.13-21.42,41.67-40.37,53.63-1.87.58,6.51-19.33,7-21,4.22-14.25,6.46-29.76,2.66-44.3l10.84-11.69c-29.8,5.3-43.15,40.16-41.99,67.48.86,20.37,8.8,31.99,13.21,49.79.2.8,1.8,2.54-.7,1.71-6.11-2.03-14.72-13.2-18.33-18.67-33.6-50.81-25.44-135.42,38.28-157.35l15.53-3.96c-16.56-4.92-31.18,1.73-43.98,11.99-.39-11.12,1.5-15.96,8.48-24.01,22.61-26.1,66.13-43.41,100.51-40.98h0Z" fill="#fff"/>
      <path d="M190.27,444.07c-18.22-14.14-36.04-32.49-48.4-52.08-2.27-3.59-5.22-7.68-5.59-11.92l-18.99,4.99c4.53-5.9,9.46-11.75,13.42-18.07s8.22-18.81,14.34-21.66c17.06-7.92,29.98,11.42,37.66,23.82,8.23,13.3,14.61,28,20.54,42.43-6.68,9.88-10.56,20.84-12.97,32.49h-.01Z" fill="#fff"/>
    </g>
  </g>
  <path d="M373.51,185.99l-39.8,163.69h-37.6l-25-105.02c-1.33-5.48-2.14-11.6-2.42-18.38h-.42c-.63,7.46-1.54,13.58-2.73,18.38l-25.63,105.02h-39.17l-39.6-163.69h37.07l21.22,109.02c.91,4.64,1.58,10.88,2,18.72h.63c.28-5.86,1.29-12.25,3.05-19.18l27.31-108.56h36.34l24.68,109.93c.91,4.03,1.71,9.89,2.42,17.58h.42c.28-6.01,1.01-12.1,2.21-18.26l20.79-109.24h34.24,0Z" fill="#fff"/>
  <path d="M181.79,244.95c-14.27,6.68-32.9,10.03-55.9,10.03-29.99,0-53.58-8.53-70.76-25.59-17.18-17.06-25.77-39.79-25.77-68.2,0-30.25,9.66-54.79,28.97-73.61,19.31-18.82,44.38-28.23,75.19-28.23,19.09,0,35.17,2.33,48.26,6.99v41.02c-13.09-7.56-28-11.34-44.72-11.34-18.36,0-33.18,5.59-44.44,16.75-11.27,11.17-16.91,26.3-16.91,45.38s5.32,32.87,15.95,43.73,24.95,16.29,42.94,16.29,32.9-4.04,47.17-12.14v38.91h.02Z" fill="#fff"/>
</svg>