<?xml version="1.0" encoding="UTF-8"?>
<svg id="Layer_1" data-name="Layer 1" xmlns="http://www.w3.org/2000/svg" viewBox="0 0 854.71 152.93">
  <path d="M416.71,1.05l11.49,42.01,10.98-41.03,11.64-.39,12.38,41.41,10.51-42h15l-17.95,69.58-13.95-.68c-1.32-1.14-8.06-28.73-10.05-33.45-.43-1.02-.67-2.33-2.04-2.45l-11.53,36.05-13.47.96L401.71,1.05h15Z" fill="#fff"/>
  <polygon points="351.71 41.05 351.71 2.05 365.71 2.05 365.71 71.05 352.13 69.13 325.72 29.05 326.71 70.04 311.71 71.05 311.71 2.05 326.28 2.98 351.71 41.05" fill="#fff"/>
  <path d="M616.35,8.41c23.48,22.22,7.56,69.71-28.7,62.2-23.88-4.94-30.8-39.5-17.36-57.47,11.03-14.74,32.35-17.7,46.06-4.73ZM591.44,15.29c-17.16,3.16-16.76,45.33,6.7,41.69,18.29-2.84,18.37-46.3-6.7-41.69Z" fill="#fff"/>
  <path d="M290.36,62.7c-4.28,4.28-11.09,7.73-17.16,8.34-42,4.25-49.07-59.16-13.46-69.46,35.79-10.35,53.99,37.75,30.62,61.12ZM264.44,15.28c-17.64,3.66-15.95,47.11,8.57,41.56,16.73-3.79,17.04-46.87-8.57-41.56Z" fill="#fff"/>
  <path d="M520.49.33c43.73-4.21,46.32,65.64,8.64,70.64-45.23,6-49.56-66.69-8.64-70.64ZM519.42,15.26c-16.1,3.69-16.26,45.45,7.73,41.72,18.26-2.84,17.65-47.54-7.73-41.72Z" fill="#fff"/>
  <path d="M636.71,2.05h29.5c5.41,0,15,6.26,18.33,10.67,16.05,21.28,7.49,54.86-21.29,57.36-7.92.69-16.56-1.06-24.49.55l-2.04-1.09V2.05ZM652.71,57.05c3.55-1.68,7.31-.68,11.06-1.44,14.19-2.89,16.34-19.85,11.13-31.25-4.17-9.12-9.83-9.12-18.72-9.28-1.29-.02-2.75-1.01-2.98-.99-2.4.15-.48,2.34-.48,2.47v40.5Z" fill="#fff"/>
  <path d="M156.21,2.05c2.1.35,8.67,3.95,10.52,5.48,12.35,10.2,8.44,31.49-5.96,38.01l15.93,24.03c.27,3.05-1.08.48-1.49.48h-15c-.22,0-.55.72-1.02.75l-11.37-22.13-7.1-.61c1.64,2.74,1.37,21.9.03,22.53-4.45-1.42-8.91.06-12.99.04-1.17,0-1.29-.06-2.04-1.09V2.05c9.23,1.09,21.7-1.47,30.5,0ZM140.71,35.04c6.44.21,16.63.78,17.94-7.55,1.94-12.32-8.82-11.9-17.95-11.43,1.84,5.85,1.34,13.05,0,18.98Z" fill="#fff"/>
  <path d="M711.7,71.06c-4.37-1.95-9.15-1.08-13.67-.17-1.44.29-1.65.3-1.26-1.27l21.83-66.98,16.48-.46,23.61,67.37c-.76,1-.82,1.12-2.05,1.1-4.53-.09-9.2-1.43-13.99-.07l-4.9-13.08-22.57.52-3.49,13.03ZM719.71,45.05h15l-7.51-22.01c-2.33-.44-1.19,1.08-1.6,2.36-2.09,6.48-4.48,12.98-5.89,19.65Z" fill="#fff"/>
  <path d="M95.61,2.15l22.09,68.9c-4.76-1.62-11.19-1.62-15.98.01l-3.9-13.43-21.49-.45-4.64,13.88c-4.19-1.59-9.72-1.63-13.98,0L78.81,2.15h16.8ZM93.71,45.05c-2.74-6.65-3.49-15.45-7.99-21l-6.01,21h14Z" fill="#fff"/>
  <path d="M202.47.32c8.96-1.23,19.27,2.49,25.17,9.37l-7.42,9.18c-4.27-4.36-18.63-8.4-20.33-.08-1.85,9.02,8.71,8.69,14.52,11.07,6.85,2.81,14.12,7.84,15.22,15.78,4.14,29.98-31.86,32.38-47.87,14.81l8.45-9.22c4.94,6.72,27.17,10.4,23.31-2.46-1.93-6.42-21.5-5.96-27.01-16.01-7.49-13.67.32-30.29,15.96-32.44Z" fill="#fff"/>
  <path d="M45.69,52.06l6.98,9.49c-8.66,11.51-28.28,12.75-39.46,4.5C-11.03,48.16-.65-3.09,34.09.15c5.16.48,16.73,5.19,19.17,9.91,1.09,2.11-7.74,8.73-9.23,8.86-.98.08-4.48-3.27-7.91-3.77C3.51,10.43,13.02,77.87,44.25,52.08l1.44-.02Z" fill="#fff"/>
  <polygon points="308.71 103.05 322.28 103.98 345.2 131.06 344.7 103.04 356.71 103.05 356.71 151.05 344.92 150.83 320.71 121.05 320.71 151.05 308.71 151.05 308.71 103.05" fill="#fff"/>
  <path d="M782.71,2.05v52.5c0,.3-1.27.77-1,1.5h25v14h-37.5c-.23,0-1.23,1.89-2.28-.49l-.22-67.51h16Z" fill="#fff"/>
  <path d="M831.71,2.05c.5.36-1,1.29-1,1.5v52.5h24v14h-37.5c-.3,0-.77,1.27-1.5,1V2.05h16Z" fill="#fff"/>
  <polygon points="553.71 103.05 553.71 113.05 527.71 113.05 527.71 122.05 550.71 122.05 550.71 131.05 527.71 131.05 526.71 141.05 555.71 141.05 555.71 151.05 515.71 151.05 515.71 103.05 553.71 103.05" fill="#fff"/>
  <path d="M243.71,103.05v21l20.5-21h14.5l-19.85,20.65,17.85,27.34-14-.49-12.5-18.48c-7.59,5.31-6.94,10.34-6.5,18.99h-11.01v-48.01h11Z" fill="#fff"/>
  <path d="M600.46,102.31c8.25-1.07,17.56,1.15,24.23,6.24l-5.58,6.42c-4.55-1.77-7.74-4.01-12.9-4-6.2,0-12.55,4.07-5.2,8.28s21.73,3.33,24.23,12.77c6.44,24.34-30.39,25.9-42.51,12.53l6.48-7.48c3.35,5.5,22.4,9.25,24.37,2.28v-2.59c-1.67-5.84-24.4-4.37-27.39-15.68s3.6-17.38,14.28-18.76Z" fill="#fff"/>
  <path d="M448.55,103.22c1.4.86,9.84,26.52,11.96,30.53.49.93,1,2.19,2.19,2.3l12.15-32.86,12.86-.13-20.67,48.03-11.83-1.03-19.49-47,12.83.16Z" fill="#fff"/>
  <rect x="393.71" y="103.05" width="11" height="48" fill="#fff"/>
</svg>